<?xml version="1.0" standalone="no"?><!DOCTYPE svg PUBLIC "-//W3C//DTD SVG 1.1//EN" "http://www.w3.org/Graphics/SVG/1.1/DTD/svg11.dtd"><svg t="1722227591063" class="icon" viewBox="0 0 1024 1024" version="1.1" xmlns="http://www.w3.org/2000/svg" p-id="4981" xmlns:xlink="http://www.w3.org/1999/xlink" width="200" height="200"><path d="M831.785745 511.938602c0 176.621627-143.184073 319.79956-319.798536 319.79956-176.621627 0-319.8057-143.177933-319.8057-319.79956 0-176.621627 143.184073-319.79956 319.8057-319.79956 176.614463 0.001023 319.798537 143.177933 319.798536 319.79956z" fill="#707070" p-id="4982"></path><path d="M511.986185 64.516386c-247.106957 0-447.429379 200.317305-447.429379 447.422216 0 247.105934 200.322421 447.422216 447.429379 447.422215 247.104911 0 447.422216-200.317305 447.422216-447.422215 0-247.104911-200.317305-447.422216-447.422216-447.422216z m0 847.512426c-220.965577 0-400.090211-179.13282-400.09021-400.09635 0-220.957391 179.12361-400.083048 400.09021-400.083048 220.963531 0 400.089188 179.125657 400.089188 400.083048 0 220.963531-179.124633 400.096351-400.089188 400.09635z" fill="#707070" p-id="4983"></path></svg>